<?xml version="1.0" encoding="UTF-8"?>
<svg id="Layer_4" data-name="Layer 4" xmlns="http://www.w3.org/2000/svg" viewBox="0 0 624.27 138.18">
  <defs>
    <style>
      .cls-1 {
        fill: #fff;
      }
    </style>
  </defs>
  <g>
    <path class="cls-1" d="M55.13,94.25h34.62v8.23h-43.89V36.24h42.48v8.14h-33.22v19.84h31.25v7.95h-31.25v22.08Z"/>
    <path class="cls-1" d="M142.35,48.5c-1.31-1.81-3.09-3.29-5.33-4.45-2.25-1.15-4.77-1.73-7.58-1.73-1.5,0-3.01.2-4.54.61-1.53.41-2.92,1.06-4.16,1.97-1.25.9-2.26,2.03-3.04,3.37-.78,1.34-1.17,2.95-1.17,4.82s.36,3.32,1.08,4.54c.72,1.22,1.68,2.25,2.9,3.09,1.22.84,2.65,1.56,4.3,2.15,1.65.59,3.42,1.2,5.29,1.83,2.25.69,4.52,1.47,6.83,2.34,2.31.87,4.4,2.03,6.27,3.46,1.87,1.44,3.4,3.23,4.58,5.38,1.18,2.15,1.78,4.88,1.78,8.19s-.64,6.41-1.92,8.94c-1.28,2.53-2.98,4.62-5.1,6.27-2.12,1.65-4.57,2.89-7.35,3.7-2.78.81-5.63,1.22-8.56,1.22-4.18,0-8.22-.81-12.12-2.43-3.9-1.62-7.13-4.02-9.69-7.21l7.21-6.08c1.56,2.31,3.65,4.18,6.27,5.61,2.62,1.44,5.46,2.15,8.52,2.15,1.56,0,3.12-.22,4.68-.66,1.56-.44,2.98-1.12,4.26-2.06,1.28-.94,2.32-2.11,3.13-3.51.81-1.4,1.22-3.1,1.22-5.1s-.42-3.66-1.26-5.01c-.84-1.34-1.98-2.48-3.42-3.42-1.44-.94-3.1-1.73-5.01-2.39-1.9-.66-3.92-1.32-6.04-2.01-2.12-.62-4.21-1.39-6.27-2.29-2.06-.9-3.9-2.06-5.52-3.46-1.62-1.4-2.93-3.13-3.93-5.19-1-2.06-1.5-4.62-1.5-7.67,0-3.31.67-6.14,2.01-8.51,1.34-2.37,3.09-4.34,5.24-5.9,2.15-1.56,4.58-2.7,7.3-3.42,2.71-.72,5.44-1.08,8.19-1.08,3.87,0,7.49.69,10.85,2.06,3.37,1.37,6.08,3.21,8.14,5.52l-6.55,6.36Z"/>
    <path class="cls-1" d="M172.66,102.49h-10.29l28.73-66.25h8.42l28.45,66.25h-10.48l-6.74-16.28h-31.44l-6.64,16.28ZM182.58,78.06h24.8l-12.35-31.07-12.45,31.07Z"/>
    <path class="cls-1" d="M243.78,36.24h9.26v27.7h33.5v-27.7h9.36v66.25h-9.36v-30.32h-33.5v30.32h-9.26V36.24Z"/>
    <path class="cls-1" d="M328.56,102.49h-9.26V36.24h41.36v8.14h-32.1v20.59h30.04v7.95h-30.04v29.57Z"/>
  </g>
  <g>
    <path class="cls-1" d="M389.97,50.11h8.66v2.06h-10.97v-16.56h10.62v2.04h-8.3v4.96h7.81v1.99h-7.81v5.52Z"/>
    <path class="cls-1" d="M408.44,44.99c0-.83-.25-1.44-.75-1.84-.5-.4-1.16-.6-1.99-.6-.62,0-1.21.12-1.77.36-.55.24-1.02.55-1.39.92l-1.17-1.4c.55-.51,1.21-.92,2-1.22.79-.3,1.63-.44,2.54-.44.8,0,1.49.11,2.07.34.58.23,1.06.53,1.44.92.38.39.66.85.84,1.38.19.53.28,1.1.28,1.71v4.84c0,.37.01.77.04,1.18s.07.75.13,1.02h-1.99c-.12-.53-.19-1.06-.19-1.59h-.07c-.41.59-.92,1.05-1.53,1.38-.62.33-1.34.49-2.19.49-.44,0-.89-.06-1.37-.17s-.91-.31-1.3-.57c-.39-.26-.71-.62-.97-1.05-.26-.44-.39-.97-.39-1.61,0-.84.23-1.51.68-2,.45-.49,1.04-.87,1.78-1.12.73-.26,1.56-.42,2.48-.5.92-.08,1.85-.12,2.78-.12v-.3ZM407.91,46.88c-.55,0-1.11.02-1.7.07-.58.05-1.12.14-1.59.28-.48.14-.87.35-1.18.63-.31.28-.47.66-.47,1.12,0,.33.07.6.2.82.13.22.31.4.53.54.22.14.46.24.73.29.26.05.54.08.82.08,1.03,0,1.82-.31,2.38-.92s.83-1.39.83-2.33v-.58h-.54Z"/>
    <path class="cls-1" d="M420.11,43.89c-.25-.41-.6-.74-1.05-.99-.45-.26-.96-.39-1.52-.39-.25,0-.5.03-.75.08-.25.05-.47.14-.67.26-.2.12-.35.26-.47.44-.12.18-.17.4-.17.67,0,.47.21.81.63,1.04.42.23,1.05.43,1.89.62.53.12,1.02.27,1.47.45s.85.39,1.18.64c.33.26.6.57.78.92.19.36.28.78.28,1.26,0,.66-.12,1.21-.37,1.66-.25.45-.58.82-.99,1.11-.41.29-.89.5-1.42.62-.53.12-1.08.19-1.64.19-.84,0-1.67-.16-2.47-.49-.8-.33-1.47-.83-2-1.5l1.57-1.33c.3.44.71.8,1.23,1.1.52.3,1.09.44,1.72.44.28,0,.55-.03.81-.08.26-.05.49-.14.7-.27.21-.12.38-.29.5-.49.12-.2.19-.46.19-.77,0-.51-.25-.9-.74-1.15-.49-.25-1.21-.48-2.16-.7-.38-.09-.75-.21-1.13-.34-.38-.13-.73-.32-1.04-.55-.31-.23-.57-.53-.76-.88-.2-.35-.29-.78-.29-1.3,0-.59.12-1.1.36-1.53.24-.43.56-.78.95-1.05.39-.27.83-.48,1.33-.61.5-.13,1.01-.2,1.54-.2.79,0,1.56.16,2.3.47.74.31,1.31.76,1.72,1.36l-1.52,1.29Z"/>
    <path class="cls-1" d="M430.48,42.88h-2.95v5.76c0,.67.12,1.15.37,1.43.25.29.65.43,1.19.43.2,0,.42-.02.65-.06.23-.04.45-.11.63-.19l.07,1.8c-.27.09-.56.17-.88.22-.32.05-.65.08-.99.08-1.04,0-1.84-.29-2.4-.87-.55-.58-.83-1.44-.83-2.6v-6.01h-2.13v-1.8h2.13v-3.18h2.18v3.18h2.95v1.8Z"/>
    <path class="cls-1" d="M442.93,46.53v.37c0,.12,0,.25-.02.37h-8.82c.02.46.12.9.32,1.31.19.41.46.77.78,1.07.33.3.71.54,1.13.71.43.17.88.26,1.37.26.75,0,1.4-.16,1.94-.49.55-.33.97-.73,1.29-1.19l1.54,1.24c-.59.79-1.29,1.36-2.09,1.74-.8.37-1.7.56-2.68.56-.84,0-1.62-.14-2.34-.42-.72-.28-1.33-.67-1.85-1.18-.51-.51-.92-1.12-1.22-1.84-.3-.72-.44-1.51-.44-2.39s.14-1.65.43-2.38.69-1.34,1.21-1.86,1.13-.92,1.83-1.21c.7-.29,1.46-.43,2.27-.43s1.55.13,2.22.4c.66.27,1.23.65,1.69,1.15s.82,1.1,1.07,1.81c.25.71.38,1.51.38,2.4ZM440.69,45.64c-.02-.44-.09-.85-.22-1.23s-.33-.71-.58-.99c-.26-.28-.58-.5-.96-.67s-.83-.25-1.34-.25c-.47,0-.91.08-1.32.25s-.77.39-1.08.67c-.3.28-.55.61-.75.99-.2.38-.31.79-.34,1.23h6.6Z"/>
    <path class="cls-1" d="M445.78,42.32c-.02-.47-.04-.88-.07-1.24h2.08c.03.28.05.6.07.97.02.37.02.67.02.9h.07c.31-.66.77-1.18,1.37-1.58.6-.4,1.27-.6,2.02-.6.34,0,.63.03.87.09l-.09,2.04c-.31-.08-.65-.12-1.01-.12-.53,0-.99.1-1.38.29-.39.2-.71.46-.97.78-.26.33-.45.71-.57,1.13-.12.43-.19.88-.19,1.34v5.83h-2.2v-8.7c0-.3,0-.68-.02-1.15Z"/>
    <path class="cls-1" d="M456.35,41.08c.03.28.05.6.07.95.02.35.02.64.02.88h.07c.14-.3.33-.57.57-.83.24-.26.52-.48.83-.68.31-.2.65-.35,1.03-.46.37-.11.76-.16,1.17-.16.72,0,1.33.12,1.85.36.51.24.94.57,1.29.97.34.41.6.88.76,1.43.16.55.25,1.13.25,1.75v6.88h-2.2v-6.15c0-.45-.04-.88-.11-1.29-.07-.41-.2-.76-.39-1.08-.19-.31-.44-.56-.77-.75-.33-.19-.75-.28-1.26-.28-.87,0-1.59.33-2.14.99-.55.66-.83,1.55-.83,2.66v5.9h-2.2v-8.7c0-.3,0-.68-.02-1.15s-.04-.88-.07-1.24h2.08Z"/>
    <path class="cls-1" d="M480.72,44.99c0-.83-.25-1.44-.75-1.84-.5-.4-1.16-.6-1.99-.6-.62,0-1.21.12-1.77.36-.55.24-1.02.55-1.39.92l-1.17-1.4c.55-.51,1.21-.92,2-1.22.79-.3,1.63-.44,2.54-.44.8,0,1.49.11,2.07.34.58.23,1.06.53,1.44.92.38.39.66.85.84,1.38.19.53.28,1.1.28,1.71v4.84c0,.37.01.77.04,1.18s.07.75.13,1.02h-1.99c-.12-.53-.19-1.06-.19-1.59h-.07c-.41.59-.92,1.05-1.53,1.38-.62.33-1.34.49-2.19.49-.44,0-.89-.06-1.37-.17s-.91-.31-1.3-.57c-.39-.26-.71-.62-.97-1.05-.26-.44-.39-.97-.39-1.61,0-.84.23-1.51.68-2,.45-.49,1.04-.87,1.78-1.12.73-.26,1.56-.42,2.48-.5.92-.08,1.85-.12,2.78-.12v-.3ZM480.18,46.88c-.55,0-1.11.02-1.7.07-.58.05-1.12.14-1.59.28-.48.14-.87.35-1.18.63-.31.28-.47.66-.47,1.12,0,.33.07.6.2.82.13.22.31.4.53.54.22.14.46.24.73.29.26.05.54.08.82.08,1.03,0,1.82-.31,2.38-.92s.83-1.39.83-2.33v-.58h-.54Z"/>
    <path class="cls-1" d="M488.3,41.08c.03.28.05.6.07.95.02.35.02.64.02.88h.07c.14-.3.33-.57.57-.83.24-.26.52-.48.83-.68.31-.2.65-.35,1.03-.46.37-.11.76-.16,1.17-.16.72,0,1.33.12,1.85.36.51.24.94.57,1.29.97.34.41.6.88.76,1.43.16.55.25,1.13.25,1.75v6.88h-2.2v-6.15c0-.45-.04-.88-.11-1.29-.07-.41-.2-.76-.39-1.08-.19-.31-.44-.56-.77-.75-.33-.19-.75-.28-1.26-.28-.87,0-1.59.33-2.14.99-.55.66-.83,1.55-.83,2.66v5.9h-2.2v-8.7c0-.3,0-.68-.02-1.15s-.04-.88-.07-1.24h2.08Z"/>
    <path class="cls-1" d="M508.61,50.42c-.42.67-1,1.18-1.72,1.53-.73.35-1.49.53-2.28.53-.86,0-1.63-.15-2.32-.46-.69-.3-1.27-.72-1.75-1.25s-.86-1.15-1.12-1.87c-.27-.72-.4-1.48-.4-2.29s.13-1.57.4-2.28c.26-.71.64-1.33,1.13-1.86.49-.53,1.08-.94,1.77-1.24.69-.3,1.44-.44,2.27-.44.9,0,1.69.19,2.36.57.67.38,1.2.85,1.59,1.39h.05v-8.26h2.2v17.69h-2.13v-1.75h-.05ZM501.31,46.62c0,.51.08,1.01.23,1.49.16.48.39.91.7,1.28.31.37.69.67,1.15.9.45.23.98.34,1.59.34.56,0,1.07-.11,1.53-.33.46-.22.85-.51,1.18-.88.33-.37.58-.79.76-1.27.18-.48.27-.99.27-1.52s-.09-1.03-.27-1.52c-.18-.48-.43-.91-.76-1.28-.33-.37-.72-.67-1.18-.89-.46-.22-.97-.33-1.53-.33-.61,0-1.14.11-1.59.33-.45.22-.83.51-1.15.89-.31.37-.55.8-.7,1.28-.16.48-.23.98-.23,1.49Z"/>
    <path class="cls-1" d="M395.88,63.94c-.33-.45-.77-.82-1.33-1.11s-1.19-.43-1.89-.43c-.38,0-.75.05-1.13.15-.38.1-.73.27-1.04.49-.31.23-.57.51-.76.84s-.29.74-.29,1.21.09.83.27,1.13c.18.3.42.56.73.77.3.21.66.39,1.08.54s.85.3,1.32.46c.56.17,1.13.37,1.71.58s1.1.51,1.57.87c.47.36.85.81,1.15,1.35.3.54.44,1.22.44,2.05s-.16,1.6-.48,2.23c-.32.63-.75,1.15-1.28,1.57s-1.14.72-1.84.92c-.69.2-1.41.3-2.14.3-1.04,0-2.05-.2-3.03-.61-.98-.41-1.78-1.01-2.42-1.8l1.8-1.52c.39.58.91,1.04,1.57,1.4.66.36,1.36.54,2.13.54.39,0,.78-.05,1.17-.16.39-.11.74-.28,1.06-.51.32-.23.58-.53.78-.88s.3-.78.3-1.28-.11-.92-.32-1.25c-.21-.33-.5-.62-.85-.85-.36-.23-.78-.43-1.25-.6-.48-.16-.98-.33-1.51-.5-.53-.16-1.05-.35-1.57-.57-.51-.23-.97-.51-1.38-.87-.41-.35-.73-.78-.98-1.3-.25-.51-.38-1.15-.38-1.92,0-.83.17-1.54.5-2.13.34-.59.77-1.08,1.31-1.47.54-.39,1.15-.67,1.82-.85.68-.18,1.36-.27,2.05-.27.97,0,1.87.17,2.71.51.84.34,1.52.8,2.04,1.38l-1.64,1.59Z"/>
    <path class="cls-1" d="M411.96,71.87c0,.86-.15,1.65-.46,2.36-.3.72-.73,1.34-1.26,1.86s-1.17.93-1.91,1.22c-.73.29-1.52.43-2.36.43s-1.63-.14-2.36-.43c-.73-.29-1.37-.69-1.89-1.22-.53-.52-.95-1.14-1.25-1.86-.3-.72-.46-1.5-.46-2.36s.15-1.64.46-2.35c.3-.71.72-1.32,1.25-1.84.53-.51,1.16-.92,1.89-1.21.73-.29,1.52-.43,2.36-.43s1.63.14,2.36.43c.73.29,1.37.69,1.91,1.21s.96,1.13,1.26,1.84c.3.71.46,1.49.46,2.35ZM409.67,71.88c0-.53-.08-1.03-.25-1.52-.16-.48-.4-.91-.72-1.27-.31-.37-.7-.66-1.16-.88-.46-.22-.99-.33-1.58-.33s-1.12.11-1.58.33-.85.51-1.16.88c-.31.37-.55.79-.72,1.27-.17.48-.25.99-.25,1.52s.08,1.03.25,1.52c.16.48.4.91.72,1.28.31.37.7.67,1.16.89s.99.33,1.58.33,1.12-.11,1.58-.33c.46-.22.85-.51,1.16-.89.31-.37.55-.8.72-1.28.16-.48.25-.99.25-1.52Z"/>
    <path class="cls-1" d="M422.65,77.44c-.03-.28-.06-.6-.07-.95-.02-.35-.02-.64-.02-.88h-.05c-.28.59-.75,1.1-1.42,1.51s-1.4.62-2.21.62c-.72,0-1.34-.12-1.86-.35-.52-.23-.95-.56-1.29-.97-.34-.41-.58-.89-.75-1.44s-.25-1.13-.25-1.75v-6.88h2.2v6.13c0,.45.04.89.11,1.3s.2.78.39,1.09c.19.31.45.56.77.75.33.19.75.28,1.26.28.89,0,1.61-.33,2.15-.99s.82-1.55.82-2.66v-5.9h2.2v8.7c0,.3,0,.68.02,1.15.01.47.04.88.07,1.24h-2.08Z"/>
    <path class="cls-1" d="M433.94,68.15h-2.95v5.76c0,.67.12,1.15.37,1.43.25.29.65.43,1.19.43.2,0,.42-.02.65-.06.23-.04.45-.11.63-.19l.07,1.8c-.27.09-.56.17-.88.22-.32.05-.65.08-.99.08-1.04,0-1.84-.29-2.4-.87-.55-.58-.83-1.44-.83-2.6v-6.01h-2.13v-1.8h2.13v-3.18h2.18v3.18h2.95v1.8Z"/>
    <path class="cls-1" d="M438.46,68.03c.26-.55.72-1.01,1.36-1.4s1.36-.58,2.15-.58c.72,0,1.33.12,1.85.36.51.24.94.57,1.29.97.34.41.6.88.76,1.43.16.55.25,1.13.25,1.75v6.88h-2.2v-6.14c0-.45-.04-.88-.11-1.29-.07-.41-.2-.77-.39-1.08-.19-.31-.44-.56-.76-.75-.32-.19-.74-.28-1.25-.28-.87,0-1.59.33-2.15,1-.56.66-.84,1.55-.84,2.66v5.89h-2.2v-17.69h2.2v8.28h.05Z"/>
    <path class="cls-1" d="M460.04,71.8v.37c0,.12,0,.25-.02.37h-8.82c.02.46.12.9.32,1.31.19.41.46.77.78,1.07.33.3.71.54,1.13.71.43.17.88.26,1.37.26.75,0,1.4-.16,1.94-.49.55-.33.97-.73,1.29-1.19l1.54,1.24c-.59.79-1.29,1.36-2.09,1.74-.8.37-1.7.56-2.68.56-.84,0-1.62-.14-2.34-.42-.72-.28-1.33-.67-1.85-1.18-.51-.51-.92-1.12-1.22-1.84-.3-.72-.44-1.51-.44-2.39s.14-1.65.43-2.38.69-1.34,1.21-1.86,1.13-.92,1.83-1.21c.7-.29,1.46-.43,2.27-.43s1.55.13,2.22.4c.66.27,1.23.65,1.69,1.15s.82,1.1,1.07,1.81c.25.71.38,1.51.38,2.4ZM457.8,70.91c-.02-.44-.09-.85-.22-1.23s-.33-.71-.58-.99c-.26-.28-.58-.5-.96-.67s-.83-.25-1.34-.25c-.47,0-.91.08-1.32.25s-.77.39-1.08.67c-.3.28-.55.61-.75.99-.2.38-.31.79-.34,1.23h6.6Z"/>
    <path class="cls-1" d="M462.89,67.59c-.02-.47-.04-.88-.07-1.24h2.08c.03.28.05.6.07.97.02.37.02.67.02.9h.07c.31-.66.77-1.18,1.37-1.58.6-.4,1.27-.6,2.02-.6.34,0,.63.03.87.09l-.09,2.04c-.31-.08-.65-.12-1.01-.12-.53,0-.99.1-1.38.29-.39.2-.71.46-.97.78-.26.33-.45.71-.57,1.13-.12.43-.19.88-.19,1.34v5.83h-2.2v-8.7c0-.3,0-.68-.02-1.15Z"/>
    <path class="cls-1" d="M473.46,66.35c.03.28.05.6.07.95.02.35.02.64.02.88h.07c.14-.3.33-.57.57-.83.24-.26.52-.48.83-.68.31-.2.65-.35,1.03-.46.37-.11.76-.16,1.17-.16.72,0,1.33.12,1.85.36.51.24.94.57,1.29.97.34.41.6.88.76,1.43.16.55.25,1.13.25,1.75v6.88h-2.2v-6.15c0-.45-.04-.88-.11-1.29-.07-.41-.2-.76-.39-1.08-.19-.31-.44-.56-.77-.75-.33-.19-.75-.28-1.26-.28-.87,0-1.59.33-2.14.99-.55.66-.83,1.55-.83,2.66v5.9h-2.2v-8.7c0-.3,0-.68-.02-1.15s-.04-.88-.07-1.24h2.08Z"/>
    <path class="cls-1" d="M491.73,77.44h-2.57l7.18-16.56h2.11l7.11,16.56h-2.62l-1.68-4.07h-7.86l-1.66,4.07ZM494.21,71.33h6.2l-3.09-7.77-3.11,7.77Z"/>
    <path class="cls-1" d="M512.61,68.15h-2.57v9.29h-2.2v-9.29h-2.2v-1.8h2.2v-2.32c0-.66.07-1.26.22-1.81s.39-1.03.73-1.44c.33-.41.76-.73,1.29-.96.52-.23,1.16-.35,1.91-.35.53,0,.99.05,1.38.16l-.26,1.89c-.17-.05-.34-.08-.51-.12-.17-.03-.37-.05-.58-.05-.42,0-.76.07-1.02.22-.26.15-.46.35-.6.6-.14.25-.23.53-.28.85-.05.32-.07.65-.07,1v2.32h2.57v1.8Z"/>
    <path class="cls-1" d="M514.73,67.59c-.02-.47-.04-.88-.07-1.24h2.08c.03.28.05.6.07.97.02.37.02.67.02.9h.07c.31-.66.77-1.18,1.37-1.58.6-.4,1.27-.6,2.02-.6.34,0,.63.03.87.09l-.09,2.04c-.31-.08-.65-.12-1.01-.12-.53,0-.99.1-1.38.29-.39.2-.71.46-.97.78-.26.33-.45.71-.57,1.13-.12.43-.19.88-.19,1.34v5.83h-2.2v-8.7c0-.3,0-.68-.02-1.15Z"/>
    <path class="cls-1" d="M525.82,62.35c0,.41-.14.74-.43,1.01s-.63.4-1.03.4-.74-.14-1.02-.41-.42-.6-.42-.99.14-.75.42-1.02c.28-.27.62-.41,1.02-.41s.75.14,1.03.41c.29.27.43.61.43,1.02ZM525.47,77.44h-2.2v-11.09h2.2v11.09Z"/>
    <path class="cls-1" d="M536.86,69.16c-.23-.36-.58-.66-1.05-.9-.47-.24-.97-.36-1.5-.36-.58,0-1.09.11-1.53.33-.44.22-.82.51-1.13.88-.31.37-.55.79-.71,1.27-.16.48-.25.99-.25,1.52s.08,1.04.25,1.52.4.91.71,1.27c.31.37.69.66,1.15.88.45.22.97.33,1.54.33s1.07-.11,1.53-.33c.46-.22.84-.51,1.13-.89l1.47,1.33c-.47.55-1.05.97-1.75,1.27-.7.3-1.5.46-2.39.46s-1.65-.14-2.37-.42c-.73-.28-1.35-.67-1.88-1.18-.53-.51-.95-1.12-1.25-1.84-.3-.72-.46-1.52-.46-2.41s.15-1.67.44-2.39c.3-.72.71-1.33,1.24-1.85.53-.51,1.16-.91,1.88-1.19.73-.28,1.51-.42,2.35-.42.78,0,1.56.16,2.33.47.77.31,1.38.76,1.84,1.36l-1.59,1.29Z"/>
    <path class="cls-1" d="M547.84,70.26c0-.83-.25-1.44-.75-1.84-.5-.4-1.16-.6-1.99-.6-.62,0-1.21.12-1.77.36-.55.24-1.02.55-1.39.92l-1.17-1.4c.55-.51,1.21-.92,2-1.22.79-.3,1.63-.44,2.54-.44.8,0,1.49.11,2.07.34.58.23,1.06.53,1.44.92.38.39.66.85.84,1.38.19.53.28,1.1.28,1.71v4.84c0,.37.01.77.04,1.18s.07.75.13,1.02h-1.99c-.12-.53-.19-1.06-.19-1.59h-.07c-.41.59-.92,1.05-1.53,1.38-.62.33-1.34.49-2.19.49-.44,0-.89-.06-1.37-.17s-.91-.31-1.3-.57c-.39-.26-.71-.62-.97-1.05-.26-.44-.39-.97-.39-1.61,0-.84.23-1.51.68-2,.45-.49,1.04-.87,1.78-1.12.73-.26,1.56-.42,2.48-.5.92-.08,1.85-.12,2.78-.12v-.3ZM547.3,72.15c-.55,0-1.11.02-1.7.07-.58.05-1.12.14-1.59.28-.48.14-.87.35-1.18.63-.31.28-.47.66-.47,1.12,0,.33.07.6.2.82.13.22.31.4.53.54.22.14.46.24.73.29.26.05.54.08.82.08,1.03,0,1.82-.31,2.38-.92s.83-1.39.83-2.33v-.58h-.54Z"/>
    <path class="cls-1" d="M387.65,86.14h2.32v6.92h8.38v-6.92h2.34v16.56h-2.34v-7.58h-8.38v7.58h-2.32v-16.56Z"/>
    <path class="cls-1" d="M412.29,102.7c-.03-.28-.06-.6-.07-.95-.02-.35-.02-.64-.02-.88h-.05c-.28.59-.75,1.1-1.42,1.51s-1.4.62-2.21.62c-.72,0-1.34-.12-1.86-.35-.52-.23-.95-.56-1.29-.97-.34-.41-.58-.89-.75-1.44s-.25-1.13-.25-1.75v-6.88h2.2v6.13c0,.45.04.89.11,1.3s.2.78.39,1.09c.19.31.45.56.77.75.33.19.75.28,1.26.28.89,0,1.61-.33,2.15-.99s.82-1.55.82-2.66v-5.9h2.2v8.7c0,.3,0,.68.02,1.15.01.47.04.88.07,1.24h-2.08Z"/>
    <path class="cls-1" d="M421.37,91.93c.62-.41,1.34-.62,2.19-.62.75,0,1.42.17,2.02.51.6.34,1.07.91,1.42,1.71.37-.72.9-1.27,1.57-1.65.67-.38,1.4-.57,2.2-.57.72,0,1.33.12,1.85.36.51.24.94.57,1.29.97.34.41.6.88.76,1.43.16.55.25,1.13.25,1.75v6.88h-2.2v-6.15c0-.45-.04-.88-.12-1.29-.08-.41-.21-.76-.4-1.08-.19-.31-.44-.56-.75-.75-.31-.19-.71-.28-1.19-.28s-.93.11-1.29.32c-.36.21-.65.48-.88.82-.23.34-.39.71-.49,1.13s-.15.85-.15,1.29v5.99h-2.2v-6.6c0-.44-.04-.83-.12-1.19-.08-.36-.21-.67-.4-.92-.19-.26-.43-.46-.72-.61-.3-.15-.66-.22-1.1-.22-.81,0-1.49.33-2.02.99-.54.66-.81,1.55-.81,2.66v5.9h-2.2v-8.7c0-.3,0-.68-.02-1.15s-.04-.88-.07-1.24h2.08c.03.28.05.6.07.95.02.35.02.64.02.88h.07c.28-.59.73-1.1,1.35-1.51Z"/>
    <path class="cls-1" d="M445.32,95.52c0-.83-.25-1.44-.75-1.84-.5-.4-1.16-.6-1.99-.6-.62,0-1.21.12-1.77.36-.55.24-1.02.55-1.39.92l-1.17-1.4c.55-.51,1.21-.92,2-1.22.79-.3,1.63-.44,2.54-.44.8,0,1.49.11,2.07.34.58.23,1.06.53,1.44.92.38.39.66.85.84,1.38.19.53.28,1.1.28,1.71v4.84c0,.37.01.77.04,1.18s.07.75.13,1.02h-1.99c-.12-.53-.19-1.06-.19-1.59h-.07c-.41.59-.92,1.05-1.53,1.38-.62.33-1.34.49-2.19.49-.44,0-.89-.06-1.37-.17s-.91-.31-1.3-.57c-.39-.26-.71-.62-.97-1.05-.26-.44-.39-.97-.39-1.61,0-.84.23-1.51.68-2,.45-.49,1.04-.87,1.78-1.12.73-.26,1.56-.42,2.48-.5.92-.08,1.85-.12,2.78-.12v-.3ZM444.79,97.42c-.55,0-1.11.02-1.7.07-.58.05-1.12.14-1.59.28-.48.14-.87.35-1.18.63-.31.28-.47.66-.47,1.12,0,.33.07.6.2.82.13.22.31.4.53.54.22.14.46.24.73.29.26.05.54.08.82.08,1.03,0,1.82-.31,2.38-.92s.83-1.39.83-2.33v-.58h-.54Z"/>
    <path class="cls-1" d="M452.9,91.61c.03.28.05.6.07.95.02.35.02.64.02.88h.07c.14-.3.33-.57.57-.83.24-.26.52-.48.83-.68.31-.2.65-.35,1.03-.46.37-.11.76-.16,1.17-.16.72,0,1.33.12,1.85.36.51.24.94.57,1.29.97.34.41.6.88.76,1.43.16.55.25,1.13.25,1.75v6.88h-2.2v-6.15c0-.45-.04-.88-.11-1.29-.07-.41-.2-.76-.39-1.08-.19-.31-.44-.56-.77-.75-.33-.19-.75-.28-1.26-.28-.87,0-1.59.33-2.14.99-.55.66-.83,1.55-.83,2.66v5.9h-2.2v-8.7c0-.3,0-.68-.02-1.15s-.04-.88-.07-1.24h2.08Z"/>
    <path class="cls-1" d="M466.84,87.61c0,.41-.14.74-.43,1.01s-.63.4-1.03.4-.74-.14-1.02-.41-.42-.6-.42-.99.14-.75.42-1.02c.28-.27.62-.41,1.02-.41s.75.14,1.03.41c.29.27.43.61.43,1.02ZM466.49,102.7h-2.2v-11.09h2.2v11.09Z"/>
    <path class="cls-1" d="M475.82,93.42h-2.95v5.76c0,.67.12,1.15.37,1.43.25.29.65.43,1.19.43.2,0,.42-.02.65-.06.23-.04.45-.11.63-.19l.07,1.8c-.27.09-.56.17-.88.22-.32.05-.65.08-.99.08-1.04,0-1.84-.29-2.4-.87-.55-.58-.83-1.44-.83-2.6v-6.01h-2.13v-1.8h2.13v-3.18h2.18v3.18h2.95v1.8Z"/>
    <path class="cls-1" d="M485.25,95.52c0-.83-.25-1.44-.75-1.84-.5-.4-1.16-.6-1.99-.6-.62,0-1.21.12-1.77.36-.55.24-1.02.55-1.39.92l-1.17-1.4c.55-.51,1.21-.92,2-1.22.79-.3,1.63-.44,2.54-.44.8,0,1.49.11,2.07.34.58.23,1.06.53,1.44.92.38.39.66.85.84,1.38.19.53.28,1.1.28,1.71v4.84c0,.37.01.77.04,1.18s.07.75.13,1.02h-1.99c-.12-.53-.19-1.06-.19-1.59h-.07c-.41.59-.92,1.05-1.53,1.38-.62.33-1.34.49-2.19.49-.44,0-.89-.06-1.37-.17s-.91-.31-1.3-.57c-.39-.26-.71-.62-.97-1.05-.26-.44-.39-.97-.39-1.61,0-.84.23-1.51.68-2,.45-.49,1.04-.87,1.78-1.12.73-.26,1.56-.42,2.48-.5.92-.08,1.85-.12,2.78-.12v-.3ZM484.72,97.42c-.55,0-1.11.02-1.7.07-.58.05-1.12.14-1.59.28-.48.14-.87.35-1.18.63-.31.28-.47.66-.47,1.12,0,.33.07.6.2.82.13.22.31.4.53.54.22.14.46.24.73.29.26.05.54.08.82.08,1.03,0,1.82-.31,2.38-.92s.83-1.39.83-2.33v-.58h-.54Z"/>
    <path class="cls-1" d="M490.81,92.85c-.02-.47-.04-.88-.07-1.24h2.08c.03.28.05.6.07.97.02.37.02.67.02.9h.07c.31-.66.77-1.18,1.37-1.58.6-.4,1.27-.6,2.02-.6.34,0,.63.03.87.09l-.09,2.04c-.31-.08-.65-.12-1.01-.12-.53,0-.99.1-1.38.29-.39.2-.71.46-.97.78-.26.33-.45.71-.57,1.13-.12.43-.19.88-.19,1.34v5.83h-2.2v-8.7c0-.3,0-.68-.02-1.15Z"/>
    <path class="cls-1" d="M501.91,87.61c0,.41-.14.74-.43,1.01s-.63.4-1.03.4-.74-.14-1.02-.41-.42-.6-.42-.99.14-.75.42-1.02c.28-.27.62-.41,1.02-.41s.75.14,1.03.41c.29.27.43.61.43,1.02ZM501.56,102.7h-2.2v-11.09h2.2v11.09Z"/>
    <path class="cls-1" d="M512.08,95.52c0-.83-.25-1.44-.75-1.84-.5-.4-1.16-.6-1.99-.6-.62,0-1.21.12-1.77.36-.55.24-1.02.55-1.39.92l-1.17-1.4c.55-.51,1.21-.92,2-1.22.79-.3,1.63-.44,2.54-.44.8,0,1.49.11,2.07.34.58.23,1.06.53,1.44.92.38.39.66.85.84,1.38.19.53.28,1.1.28,1.71v4.84c0,.37.01.77.04,1.18s.07.75.13,1.02h-1.99c-.12-.53-.19-1.06-.19-1.59h-.07c-.41.59-.92,1.05-1.53,1.38-.62.33-1.34.49-2.19.49-.44,0-.89-.06-1.37-.17s-.91-.31-1.3-.57c-.39-.26-.71-.62-.97-1.05-.26-.44-.39-.97-.39-1.61,0-.84.23-1.51.68-2,.45-.49,1.04-.87,1.78-1.12.73-.26,1.56-.42,2.48-.5.92-.08,1.85-.12,2.78-.12v-.3ZM511.54,97.42c-.55,0-1.11.02-1.7.07-.58.05-1.12.14-1.59.28-.48.14-.87.35-1.18.63-.31.28-.47.66-.47,1.12,0,.33.07.6.2.82.13.22.31.4.53.54.22.14.46.24.73.29.26.05.54.08.82.08,1.03,0,1.82-.31,2.38-.92s.83-1.39.83-2.33v-.58h-.54Z"/>
    <path class="cls-1" d="M519.65,91.61c.03.28.05.6.07.95.02.35.02.64.02.88h.07c.14-.3.33-.57.57-.83.24-.26.52-.48.83-.68.31-.2.65-.35,1.03-.46.37-.11.76-.16,1.17-.16.72,0,1.33.12,1.85.36.51.24.94.57,1.29.97.34.41.6.88.76,1.43.16.55.25,1.13.25,1.75v6.88h-2.2v-6.15c0-.45-.04-.88-.11-1.29-.07-.41-.2-.76-.39-1.08-.19-.31-.44-.56-.77-.75-.33-.19-.75-.28-1.26-.28-.87,0-1.59.33-2.14.99-.55.66-.83,1.55-.83,2.66v5.9h-2.2v-8.7c0-.3,0-.68-.02-1.15s-.04-.88-.07-1.24h2.08Z"/>
    <path class="cls-1" d="M539.56,102.7h-2.32v-16.56h10.34v2.04h-8.02v5.15h7.51v1.99h-7.51v7.39Z"/>
    <path class="cls-1" d="M557.67,102.7c-.03-.28-.06-.6-.07-.95-.02-.35-.02-.64-.02-.88h-.05c-.28.59-.75,1.1-1.42,1.51s-1.4.62-2.21.62c-.72,0-1.34-.12-1.86-.35-.52-.23-.95-.56-1.29-.97-.34-.41-.58-.89-.75-1.44s-.25-1.13-.25-1.75v-6.88h2.2v6.13c0,.45.04.89.11,1.3s.2.78.39,1.09c.19.31.45.56.77.75.33.19.75.28,1.26.28.89,0,1.61-.33,2.15-.99s.82-1.55.82-2.66v-5.9h2.2v8.7c0,.3,0,.68.02,1.15.01.47.04.88.07,1.24h-2.08Z"/>
    <path class="cls-1" d="M565.24,91.61c.03.28.05.6.07.95.02.35.02.64.02.88h.07c.14-.3.33-.57.57-.83.24-.26.52-.48.83-.68.31-.2.65-.35,1.03-.46.37-.11.76-.16,1.17-.16.72,0,1.33.12,1.85.36.51.24.94.57,1.29.97.34.41.6.88.76,1.43.16.55.25,1.13.25,1.75v6.88h-2.2v-6.15c0-.45-.04-.88-.11-1.29-.07-.41-.2-.76-.39-1.08-.19-.31-.44-.56-.77-.75-.33-.19-.75-.28-1.26-.28-.87,0-1.59.33-2.14.99-.55.66-.83,1.55-.83,2.66v5.9h-2.2v-8.7c0-.3,0-.68-.02-1.15s-.04-.88-.07-1.24h2.08Z"/>
    <path class="cls-1" d="M585.56,100.95c-.42.67-1,1.18-1.72,1.53-.73.35-1.49.53-2.28.53-.86,0-1.63-.15-2.32-.46-.69-.3-1.27-.72-1.75-1.25s-.86-1.15-1.12-1.87c-.27-.72-.4-1.48-.4-2.29s.13-1.57.4-2.28c.26-.71.64-1.33,1.13-1.86.49-.53,1.08-.94,1.77-1.24.69-.3,1.44-.44,2.27-.44.9,0,1.69.19,2.36.57.67.38,1.2.85,1.59,1.39h.05v-8.26h2.2v17.69h-2.13v-1.75h-.05ZM578.26,97.15c0,.51.08,1.01.23,1.49.16.48.39.91.7,1.28.31.37.69.67,1.15.9.45.23.98.34,1.59.34.56,0,1.07-.11,1.53-.33.46-.22.85-.51,1.18-.88.33-.37.58-.79.76-1.27.18-.48.27-.99.27-1.52s-.09-1.03-.27-1.52c-.18-.48-.43-.91-.76-1.28-.33-.37-.72-.67-1.18-.89-.46-.22-.97-.33-1.53-.33-.61,0-1.14.11-1.59.33-.45.22-.83.51-1.15.89-.31.37-.55.8-.7,1.28-.16.48-.23.98-.23,1.49Z"/>
  </g>
</svg>